<?xml version="1.0" standalone="no"?>
<!DOCTYPE svg PUBLIC "-//W3C//DTD SVG 20010904//EN"
 "http://www.w3.org/TR/2001/REC-SVG-20010904/DTD/svg10.dtd">
<svg version="1.0" xmlns="http://www.w3.org/2000/svg"
 width="1080.000000pt" height="1080.000000pt" viewBox="0 0 1080.000000 1080.000000"
 preserveAspectRatio="xMidYMid meet">
<metadata>
Created by potrace 1.14, written by Peter Selinger 2001-2017
</metadata>
<g transform="translate(0.000000,1080.000000) scale(0.100000,-0.100000)"
fill="#000000" stroke="none">
<path d="M3905 9687 c-104 -79 -184 -125 -240 -138 -153 -37 -257 -74 -375
-135 -71 -36 -127 -70 -125 -75 3 -4 0 -11 -6 -15 -8 -5 -9 -3 -4 6 6 10 4 12
-11 6 -10 -5 -41 -16 -69 -26 -27 -9 -79 -29 -115 -44 -126 -52 -148 -65 -129
-77 8 -4 4 -11 -12 -19 -13 -7 -53 -38 -89 -69 -36 -32 -90 -74 -120 -96 -30
-21 -68 -50 -84 -64 l-29 -26 20 30 c12 17 31 40 43 53 24 25 19 43 -8 26 -21
-14 -99 -119 -81 -110 8 4 5 0 -5 -8 -11 -9 -16 -16 -10 -16 5 0 4 -4 -2 -8
-5 -4 -20 -24 -33 -44 -12 -21 -26 -38 -30 -38 -20 0 -66 -147 -76 -247 -4
-37 -12 -63 -18 -63 -7 0 -41 14 -77 31 -118 56 -229 71 -325 46 -55 -14 -157
-87 -197 -139 -54 -73 -62 -103 -65 -263 -8 -368 -24 -733 -37 -870 -36 -365
-53 -678 -35 -629 13 37 39 201 54 339 27 262 29 267 36 100 3 -82 11 -213 17
-290 6 -77 17 -212 23 -300 6 -88 19 -207 29 -265 61 -336 80 -425 107 -495
21 -54 20 -184 -2 -265 -57 -215 -161 -500 -260 -715 -19 -41 -35 -78 -35 -81
0 -7 -34 -84 -71 -159 -16 -33 -29 -67 -29 -76 0 -8 -4 -19 -9 -24 -15 -18
-41 -114 -52 -196 -11 -81 -4 -194 11 -184 5 3 10 1 12 -5 1 -5 3 45 4 113 0
128 12 186 60 296 28 63 39 63 24 -2 -21 -95 -39 -241 -37 -305 2 -52 7 -74
25 -100 13 -17 29 -32 35 -31 8 0 7 2 -1 6 -22 9 -33 52 -33 137 -1 117 28
294 61 371 5 11 11 35 14 53 6 33 80 219 133 332 14 30 33 75 43 100 10 25 49
108 88 186 38 77 72 147 74 155 13 36 13 -6 1 -106 -39 -320 -70 -491 -94
-505 -6 -4 -8 -16 -5 -28 4 -12 2 -31 -4 -42 -6 -12 -23 -51 -37 -88 l-25 -67
28 25 c22 21 26 22 20 6 -6 -17 -5 -17 10 -5 16 13 17 8 10 -70 -4 -46 -11
-92 -17 -102 -5 -11 -7 -43 -4 -73 7 -66 -9 -139 -70 -317 -25 -74 -60 -174
-76 -223 -39 -113 -160 -435 -189 -501 -21 -47 -62 -174 -108 -330 -11 -38
-42 -135 -67 -215 -53 -162 -80 -337 -99 -635 -2 -33 -9 -118 -15 -190 -11
-129 -39 -491 -47 -615 -20 -308 -25 -386 -31 -465 -8 -96 -8 -101 0 -470 6
-278 3 -250 20 -267 8 -7 18 -27 24 -43 l10 -30 2555 -3 2555 -2 -1 77 c-1 62
4 86 21 120 13 23 32 44 43 48 11 3 19 12 17 18 -1 7 10 12 28 12 17 1 56 12
88 25 55 23 57 25 57 62 0 21 3 38 8 39 84 7 97 12 149 59 29 27 69 54 88 60
19 6 35 18 35 26 0 19 4 18 53 -10 23 -13 87 -39 142 -57 55 -19 103 -37 106
-42 7 -10 96 -24 137 -21 17 1 62 11 99 22 38 11 83 23 101 27 31 6 155 65
251 119 37 21 115 57 131 61 16 3 50 32 50 42 0 14 128 96 139 89 5 -3 17 6
27 20 18 24 92 64 125 67 10 1 14 8 11 19 -2 10 1 18 7 18 6 0 10 3 9 8 -3 13
44 82 53 77 4 -3 12 7 15 22 4 15 29 52 55 82 27 30 46 58 43 63 -3 4 -1 8 4
8 4 0 16 24 25 53 9 29 28 68 42 87 14 19 25 41 25 51 0 9 7 34 16 55 9 22 13
36 8 31 -11 -11 -44 23 -37 39 3 8 -5 17 -21 24 -14 5 -26 16 -26 25 0 20 14
19 36 -2 23 -24 63 -43 68 -34 3 4 -9 28 -25 54 -31 50 -106 97 -155 97 -30 0
-103 42 -154 89 -19 17 -37 31 -41 31 -3 0 -11 10 -18 23 -14 27 -3 54 42 102
15 16 27 34 27 40 0 5 -5 3 -10 -5 -5 -8 -10 -12 -10 -7 0 11 -34 -27 -50 -58
-26 -49 -56 -43 -117 21 -29 32 -53 62 -53 68 0 25 -75 157 -121 214 -54 65
-126 120 -172 129 l-27 6 23 23 c13 12 54 69 93 126 38 57 72 105 76 108 15
11 67 164 72 211 5 44 14 66 51 128 22 37 94 112 112 116 10 2 31 8 46 14 16
6 35 11 43 11 25 0 15 -56 -24 -137 -46 -92 -83 -198 -81 -233 0 -16 3 -19 6
-10 7 18 34 39 49 40 10 0 94 -155 94 -173 0 -4 -19 -7 -42 -8 -60 -1 -84 -10
-118 -42 -35 -34 -38 -23 -9 39 12 28 19 60 17 82 -4 37 -4 37 -22 -23 -10
-33 -29 -85 -41 -115 -42 -102 -45 -121 -31 -193 9 -41 22 -55 38 -39 6 6 27
5 61 -4 66 -18 77 -17 77 1 0 15 58 51 67 41 4 -3 11 1 17 8 13 17 85 53 240
121 60 27 143 67 185 89 42 23 96 49 121 59 25 11 86 37 135 59 50 22 131 56
180 75 50 19 142 55 205 80 63 25 176 75 250 111 74 36 180 83 235 104 55 22
120 48 145 58 25 10 82 31 127 48 99 37 171 73 198 99 11 11 54 37 95 59 41
21 96 59 121 84 63 63 69 108 30 228 -128 387 -244 634 -328 698 -21 15 -40
31 -43 35 -13 17 -128 41 -175 35 -75 -8 -353 -102 -510 -171 -16 -7 -113 -47
-215 -90 -102 -42 -248 -103 -325 -135 -77 -32 -196 -82 -265 -110 -69 -29
-141 -58 -160 -65 -19 -8 -107 -44 -195 -80 -88 -37 -214 -89 -280 -116 -66
-27 -129 -54 -140 -59 -16 -7 -295 -122 -457 -187 -33 -14 -42 -14 -100 5
-153 49 -285 72 -443 79 -107 5 -138 10 -175 28 -54 26 -159 58 -255 76 -64
12 -332 18 -395 8 -22 -4 -26 1 -34 39 -5 23 -13 42 -17 42 -11 0 -11 2 0 -38
12 -41 5 -62 -21 -62 -18 0 -19 5 -14 34 9 47 -8 54 -47 19 -48 -42 -92 -59
-110 -41 -13 11 -9 16 27 34 47 24 54 49 14 49 -30 1 -46 11 -33 23 4 4 10 1
12 -6 3 -6 9 -9 15 -6 5 3 0 13 -12 21 -19 14 -23 13 -34 -2 -12 -17 -14 -17
-27 2 -9 13 -14 43 -13 82 1 33 -3 61 -8 61 -11 0 -6 80 13 202 9 61 10 93 2
110 -11 25 -7 51 8 43 5 -4 6 1 3 9 -3 9 -11 16 -18 16 -20 1 -47 49 -44 78 2
20 -1 27 -14 26 -14 -1 -16 2 -7 17 9 18 7 19 -15 13 -22 -5 -26 -3 -26 14 0
26 -16 37 -24 17 -3 -8 -12 -12 -21 -9 -14 6 -14 8 2 26 16 18 16 20 -9 41
-14 12 -28 33 -31 47 -12 57 -36 113 -124 285 -63 123 -87 193 -97 289 -2 12
-7 30 -13 41 -6 11 -14 52 -18 90 -4 39 -12 78 -17 88 -5 10 -11 28 -13 39 -3
11 -12 29 -21 39 -10 12 -13 25 -9 40 7 21 8 21 24 -12 31 -63 72 -131 87
-147 9 -8 13 -23 11 -33 -3 -12 0 -19 9 -19 8 0 14 -10 14 -22 0 -13 10 -34
21 -48 l20 -25 -6 25 c-4 14 -16 45 -26 69 -23 52 -24 70 -5 77 13 5 56 -27
56 -41 0 -3 16 -40 36 -82 19 -42 44 -100 55 -127 12 -28 28 -69 37 -91 10
-22 16 -43 15 -47 -2 -5 8 -8 21 -8 25 0 67 -46 80 -88 6 -19 10 -21 22 -11
12 10 11 18 -10 53 -24 42 -37 118 -81 496 -21 174 -23 184 -41 169 -8 -6 -12
-22 -9 -35 3 -13 7 -36 10 -50 6 -25 4 -25 -27 -19 -41 9 -88 36 -153 89 -49
40 -135 125 -135 133 0 9 -45 44 -67 53 -13 5 -20 15 -18 22 8 20 -59 83 -121
113 -38 19 -54 32 -50 41 3 9 -2 17 -12 20 -50 15 -102 45 -96 55 4 6 0 15 -7
20 -10 6 -11 9 -1 9 21 0 13 20 -12 29 -13 5 -48 26 -79 45 -31 20 -58 36 -61
36 -12 0 -48 37 -62 62 -19 37 -9 56 34 60 33 3 34 4 17 18 -11 8 -16 10 -11
3 5 -9 2 -11 -8 -7 -9 3 -14 10 -11 14 3 4 -7 15 -21 25 -73 47 -146 122 -159
161 -12 38 -81 217 -101 262 -26 60 -11 155 33 204 17 19 90 33 127 24 20 -5
24 -13 30 -68 13 -115 83 -349 124 -411 14 -20 25 -51 26 -67 1 -17 3 -30 6
-30 3 0 11 -21 18 -47 8 -27 18 -56 24 -67 7 -13 7 -21 -1 -25 -19 -12 89 -96
155 -121 23 -9 25 -9 15 4 -11 13 -8 13 18 3 17 -6 31 -18 31 -27 1 -20 28
-55 37 -46 10 10 8 67 -6 171 -7 50 -14 108 -16 130 -2 22 -10 99 -18 170 -8
72 -13 162 -11 200 6 117 6 239 -1 256 -5 14 5 18 62 24 37 4 80 13 95 21 35
18 68 61 67 88 0 15 -4 11 -15 -16 -28 -67 -93 -84 -359 -94 -104 -4 -241 -12
-304 -18 l-114 -11 -24 -45 c-13 -25 -28 -49 -33 -54 -17 -17 -55 111 -70 234
-10 77 -47 536 -52 645 -3 66 -4 66 72 51 34 -8 35 -7 13 9 -14 9 -23 27 -23
41 l0 26 31 -31 c20 -21 40 -31 60 -31 33 0 39 16 9 25 -20 6 -37 46 -26 63 3
6 15 8 25 5 22 -6 36 25 26 58 -5 15 -4 19 4 15 6 -4 11 -13 11 -20 0 -17 27
-40 33 -29 10 18 -60 143 -80 143 -21 0 -15 29 10 44 42 26 76 28 104 6 14
-11 39 -20 57 -19 l31 1 -35 10 c-44 12 -62 28 -32 28 32 0 27 20 -9 33 -21 8
-29 17 -25 29 3 13 -2 18 -17 18 -18 0 -19 2 -7 10 13 9 13 10 0 10 -34 0
-106 -63 -155 -135 -18 -27 -45 -63 -59 -80 -24 -29 -25 -29 -18 -5 10 35 62
121 89 147 24 23 30 43 13 43 -5 0 -10 -4 -10 -9 0 -12 -28 -41 -39 -41 -11 0
3 80 17 105 16 27 72 177 72 193 0 7 7 15 16 19 8 3 13 11 10 18 -2 7 0 30 5
51 42 176 84 412 95 532 3 45 11 85 15 88 5 3 9 -2 9 -10 0 -8 7 -30 14 -48 8
-18 27 -64 41 -103 14 -38 34 -86 44 -105 29 -57 75 -252 92 -394 11 -90 7
-247 -7 -316 -4 -19 -3 -21 5 -10 20 31 41 185 41 299 0 162 -53 475 -115 680
-14 46 -23 86 -21 89 16 15 89 -85 213 -288 97 -160 127 -220 104 -206 -5 4
-19 -2 -31 -14 -23 -23 -27 -39 -6 -21 31 26 68 9 99 -44 96 -162 127 -242 90
-231 -10 3 -35 8 -55 12 -21 3 -38 10 -38 15 0 5 5 9 10 9 6 0 10 5 10 10 0 6
-7 10 -15 10 -8 0 -14 -5 -13 -11 4 -17 -46 -51 -65 -43 -9 3 -14 11 -11 18 3
6 -2 2 -10 -8 -9 -11 -16 -27 -16 -35 1 -14 2 -14 13 0 24 32 36 11 21 -38
-18 -61 -18 -93 1 -93 8 0 15 -9 15 -20 0 -25 28 -98 50 -129 13 -19 90 -58
90 -45 0 2 -11 14 -25 27 -23 21 -25 27 -17 63 9 38 9 39 20 14 8 -19 11 -20
11 -7 1 10 -6 32 -15 49 -12 24 -18 28 -25 17 -7 -12 -11 -11 -25 3 -14 14
-15 20 -4 33 11 13 10 18 -2 28 -13 11 -12 17 8 52 18 30 24 35 24 20 1 -12
23 -38 54 -64 44 -35 55 -51 60 -83 4 -21 10 -37 15 -34 5 3 12 -11 15 -32 7
-38 38 -128 55 -159 17 -30 40 -114 51 -183 15 -97 12 -180 -10 -313 -12 -66
-19 -121 -16 -124 2 -2 7 15 11 39 3 24 10 57 15 73 9 30 28 153 51 338 6 55
9 134 6 178 -4 43 -3 81 2 83 13 8 39 -62 53 -139 l12 -70 7 69 c4 44 1 81 -7
105 -7 20 -10 38 -7 41 2 3 21 -13 42 -35 47 -52 99 -88 112 -79 11 6 -49 50
-64 46 -5 -1 -6 2 -3 7 3 5 -1 15 -10 22 -30 25 -66 117 -103 265 -11 44 -27
97 -36 117 -21 51 -55 201 -55 244 0 48 -51 203 -66 203 -7 0 -15 9 -19 20 -3
11 -22 42 -41 69 -19 28 -34 52 -34 55 0 20 -105 153 -194 244 -83 85 -126
121 -171 143 -33 16 -65 29 -72 29 -6 0 -19 9 -27 21 -8 12 -19 18 -25 14 -6
-3 -11 1 -11 10 0 9 -4 14 -9 11 -5 -3 -11 1 -15 9 -3 8 -10 15 -15 15 -5 0
-35 26 -67 58 -139 136 -234 222 -244 222 -5 0 -10 5 -10 10 0 13 3 12 70 -4
58 -15 119 -44 210 -101 30 -19 60 -32 67 -30 7 2 10 -2 7 -9 -3 -8 -1 -17 4
-20 6 -3 12 1 16 9 5 13 -40 55 -60 55 -4 0 -15 6 -23 14 -50 43 -318 155
-341 141 -5 -3 -10 -13 -10 -22 0 -11 -6 -14 -22 -9 -55 17 -63 18 -56 11 5
-5 -6 -17 -22 -27 -17 -10 -35 -30 -40 -46 -17 -46 -37 -76 -59 -83 -18 -7
-20 -5 -15 24 3 18 10 45 14 60 6 17 6 25 0 22 -6 -4 -10 -13 -10 -22 0 -13
-2 -14 -17 -2 -11 10 -14 10 -9 2 4 -7 2 -13 -3 -13 -20 0 -11 13 45 67 73 68
49 68 -41 0z m10 -77 c-3 -5 -12 -10 -18 -10 -7 0 -6 4 3 10 19 12 23 12 15 0z
m-247 -86 c21 -4 29 -11 25 -21 -5 -12 -7 -12 -14 -1 -7 10 -9 10 -9 1 0 -7
-12 -13 -26 -13 -14 0 -23 -4 -20 -9 3 -5 -3 -11 -15 -14 -16 -4 -18 -3 -8 9
7 9 8 14 1 14 -6 0 -17 -9 -25 -21 -9 -12 -34 -25 -59 -30 -23 -5 -52 -13 -63
-18 -25 -12 -95 -25 -114 -22 -7 1 -10 -2 -6 -8 3 -7 0 -8 -9 -5 -9 3 -16 2
-16 -3 0 -14 -75 -37 -90 -28 -7 4 2 14 25 26 20 11 40 17 45 14 6 -4 10 -2
10 4 0 6 7 7 17 4 10 -4 14 -2 9 5 -9 15 13 27 27 13 6 -6 16 -11 22 -11 5 0
3 4 -5 10 -18 11 -8 22 23 24 14 0 23 4 20 9 -2 4 1 8 6 8 16 2 23 4 54 17 16
7 34 12 41 12 6 0 16 4 22 10 5 5 27 14 49 19 53 12 48 12 83 5z m-623 -264
c-3 -5 -12 -10 -18 -10 -7 0 -6 4 3 10 19 12 23 12 15 0z m-45 -20 c-8 -5 -22
-10 -30 -10 -13 0 -13 1 0 10 8 5 22 10 30 10 13 0 13 -1 0 -10z m-366 -275
c-15 -20 -29 -33 -33 -30 -3 3 1 10 9 15 8 6 12 10 8 10 -11 0 24 40 35 40 4
0 -4 -16 -19 -35z m-559 -436 c22 -7 36 -13 30 -14 -5 -2 -44 -9 -85 -15 -41
-7 -79 -17 -84 -22 -14 -11 -106 -10 -106 2 0 6 5 10 11 10 5 0 7 5 4 10 -4 6
5 10 20 10 14 0 28 7 31 15 8 19 118 21 179 4z m2985 -298 c0 -11 3 -28 7 -38
4 -10 -5 -4 -20 13 -32 38 -33 44 -7 44 13 0 20 -7 20 -19z m-736 -366 c11 -8
14 -15 8 -15 -7 0 -12 -7 -12 -15 0 -21 -27 -19 -32 3 -5 19 0 42 10 42 4 0
16 -7 26 -15z m-843 -181 c37 -19 57 -49 52 -79 l-5 -24 -39 25 c-21 13 -43
24 -48 24 -5 0 -11 6 -14 13 -2 6 -8 9 -12 5 -12 -11 3 -26 56 -54 48 -27 63
-58 29 -60 -44 -3 -43 -2 -36 -69 6 -56 4 -65 -10 -65 -13 0 -14 -3 -4 -15 15
-18 4 -55 -17 -55 -8 0 -38 12 -66 27 -43 24 -54 36 -78 91 -44 97 -37 234 13
256 22 9 150 -5 179 -20z m28 -176 c0 -7 -4 -22 -9 -33 -7 -18 -8 -19 -15 -2
-4 9 -5 24 -1 32 7 18 26 20 25 3z m137 -133 c2 -5 9 -17 15 -26 8 -10 9 -35
5 -72 l-7 -56 -27 11 c-15 7 -34 18 -43 25 -8 7 -23 13 -33 13 -9 0 -19 6 -22
13 -6 16 23 87 35 87 5 0 9 12 9 26 0 15 6 30 13 35 11 7 12 11 1 17 -10 7
-11 14 -1 36 12 27 13 26 32 -36 11 -35 21 -67 23 -73z m-1003 -187 c163 -160
186 -177 305 -218 68 -24 155 -25 209 -3 18 7 54 13 80 13 l48 -1 -24 -19
c-13 -11 -29 -20 -37 -20 -8 0 -14 -4 -14 -10 0 -5 7 -10 15 -10 18 0 97 38
105 50 6 10 122 41 128 35 3 -2 0 -27 -5 -54 -7 -34 -7 -53 1 -61 7 -7 6 -29
-3 -73 -18 -87 -32 -107 -80 -107 -31 0 -40 5 -51 28 -11 22 -14 24 -17 9 -7
-28 37 -67 75 -67 19 0 32 5 32 13 0 7 4 6 10 -4 11 -19 -9 -106 -40 -176 -13
-30 -25 -43 -39 -43 -10 0 -21 -6 -24 -12 -3 -10 -7 -10 -20 0 -12 10 -25 11
-54 3 -21 -5 -67 -17 -103 -26 -97 -24 -132 -42 -165 -87 -48 -66 -54 -81 -61
-156 -7 -79 5 -60 -170 -245 -38 -40 -53 -64 -49 -75 3 -9 3 -13 -1 -10 -3 4
-28 -16 -55 -45 -54 -58 -94 -148 -130 -292 l-22 -90 -102 -105 c-55 -58 -123
-127 -149 -155 -27 -28 -45 -41 -41 -30 23 70 108 438 155 680 35 177 82 531
110 825 50 541 56 591 71 601 7 4 9 14 6 23 -4 9 -4 16 -2 16 2 0 51 -46 108
-102z m-158 -45 c-9 -196 -40 -429 -58 -440 -6 -4 -8 0 -5 8 3 8 12 123 18
255 7 131 17 243 21 249 5 5 9 19 9 32 0 13 5 23 10 23 7 0 9 -42 5 -127z
m1165 -6 c0 -21 -55 -176 -88 -247 -32 -69 -62 -110 -81 -110 -18 0 -2 167 22
220 l21 45 5 -33 c8 -46 25 -45 29 3 2 22 9 45 15 50 7 6 21 27 30 48 17 36
47 51 47 24z m105 -212 c8 -114 13 -143 47 -275 14 -52 28 -114 32 -137 6 -40
5 -43 -16 -42 -13 0 -63 -4 -112 -10 -50 -7 -115 -9 -145 -6 -31 4 -75 8 -99
9 -23 2 -45 6 -49 10 -4 3 5 43 20 89 14 45 28 97 31 115 3 23 22 51 66 95 58
60 199 257 201 281 2 39 18 -46 24 -129z m-1960 -235 c27 -150 45 -359 52
-590 3 -124 3 -223 1 -220 -22 21 -89 763 -87 950 l1 75 9 -65 c5 -36 16 -103
24 -150z m2085 93 c33 -71 120 -316 120 -338 0 -10 -9 -11 -37 -5 -21 5 -50
11 -64 14 -30 6 -42 42 -54 151 -10 83 -10 245 0 245 2 0 18 -30 35 -67z
m-1459 -174 l-9 -34 -1 35 c0 19 3 46 7 60 l7 25 3 -26 c2 -15 -1 -42 -7 -60z
m-14 -81 c-3 -7 -5 -2 -5 12 0 14 2 19 5 13 2 -7 2 -19 0 -25z m-10 -60 c-3
-7 -5 -2 -5 12 0 14 2 19 5 13 2 -7 2 -19 0 -25z m2504 -318 c7 -33 17 -60 21
-60 4 0 5 -7 2 -15 -4 -8 -2 -15 3 -15 5 0 10 -20 12 -45 2 -47 -9 -56 -39
-32 -18 15 -17 10 -26 137 -8 116 5 130 27 30z m-743 -67 c20 -24 21 -28 7
-31 -28 -6 -45 6 -45 33 0 32 9 32 38 -2z m22 -73 c0 -5 11 -10 24 -10 14 0
27 -4 30 -8 3 -4 -9 -7 -25 -6 -48 3 -80 14 -74 24 8 13 45 13 45 0z m43 3
c-7 -2 -19 -2 -25 0 -7 3 -2 5 12 5 14 0 19 -2 13 -5z m239 -59 c10 -3 16 -9
14 -13 -3 -4 9 -13 25 -20 35 -15 37 -28 7 -34 -21 -4 -21 -4 3 -6 15 0 39
-16 60 -37 l34 -37 -30 6 c-16 4 -60 12 -97 19 -56 10 -68 15 -68 31 0 13 -5
17 -14 14 -9 -4 -17 2 -21 14 -9 28 2 36 26 20 12 -7 24 -10 27 -7 3 3 0 6 -7
6 -7 0 -9 5 -5 12 4 7 3 8 -4 4 -7 -4 -12 -3 -12 3 0 5 -10 11 -22 13 -12 2
-23 9 -26 16 -3 10 7 12 44 8 27 -4 57 -9 66 -12z m-208 -21 c4 -10 4 -14 0
-10 -4 4 -16 0 -26 -10 -25 -22 -34 -10 -11 15 23 26 29 26 37 5z m376 -46 c0
-6 -9 -2 -20 8 -11 10 -20 23 -20 28 0 6 9 2 20 -8 11 -10 20 -23 20 -28z
m127 -22 c12 -4 14 -8 5 -17 -9 -9 -17 -7 -35 10 -23 24 -23 24 30 7z m-759
-39 c6 -13 20 -27 31 -31 27 -8 128 -184 114 -199 -3 -3 4 -20 16 -39 11 -19
21 -42 21 -51 0 -9 5 -16 11 -16 8 0 8 -5 -1 -15 -12 -15 -35 -11 -25 5 3 4 0
10 -6 12 -6 2 -12 15 -12 30 -1 14 -4 24 -6 22 -7 -7 -41 55 -41 75 0 10 -7
24 -15 31 -8 7 -15 19 -15 26 0 8 -19 42 -43 77 -24 34 -46 70 -50 80 -10 26
8 20 21 -7z m-88 -54 c66 -83 201 -333 212 -392 2 -8 6 -17 9 -20 3 -3 13 -25
21 -50 9 -25 23 -62 32 -82 9 -21 13 -38 9 -38 -11 0 -66 121 -59 128 3 3 -3
12 -14 19 -11 8 -18 19 -15 24 4 5 2 9 -4 9 -5 0 -13 21 -17 48 -4 29 -21 68
-44 102 -20 30 -48 81 -63 112 -14 32 -41 74 -60 95 -33 38 -67 87 -67 98 0
15 20 -2 60 -53z m628 19 c15 -1 21 -5 16 -13 -5 -8 4 -9 35 -4 30 4 48 2 66
-10 29 -19 32 -34 8 -34 -14 0 -15 -2 -5 -9 8 -4 13 -12 12 -17 0 -5 9 -11 21
-12 15 -3 19 0 14 8 -5 8 -3 11 6 8 8 -3 13 -11 11 -17 -1 -7 2 -10 7 -7 5 4
22 -4 38 -17 61 -49 138 -94 221 -128 31 -13 102 -104 102 -130 0 -20 -41 23
-55 58 -12 28 -19 33 -43 31 -23 -2 -28 -6 -24 -21 3 -13 7 -15 12 -7 8 13 36
-62 43 -115 5 -35 -8 -56 -29 -48 -8 3 -14 1 -14 -5 0 -5 11 -13 25 -16 14 -4
23 -11 20 -16 -4 -6 -11 -8 -16 -4 -14 8 -39 -15 -39 -37 0 -12 -5 -16 -15
-13 -20 8 -19 -1 3 -33 9 -15 11 -24 5 -20 -7 5 -13 4 -13 -2 0 -26 -29 -8
-35 22 -22 108 -70 228 -109 274 -15 18 -25 37 -21 43 3 6 0 7 -9 4 -10 -4
-16 -1 -16 10 0 10 6 13 15 10 11 -4 15 1 16 17 0 13 3 18 6 12 2 -7 10 -13
16 -13 8 0 7 4 -1 12 -17 17 -15 31 2 25 10 -4 13 -1 9 9 -3 7 -9 14 -14 14
-5 0 -9 5 -9 11 0 5 5 7 10 4 6 -3 10 -4 10 -2 0 3 -16 14 -35 26 -42 24 -44
21 -9 -14 29 -29 27 -51 -5 -47 -18 2 -21 -2 -16 -18 3 -11 2 -20 -3 -20 -10
0 -22 33 -22 62 0 12 5 16 18 11 14 -5 13 -3 -3 10 -18 14 -21 14 -27 -4 -4
-11 -4 -38 1 -59 7 -33 6 -38 -8 -33 -18 7 -18 7 48 -72 19 -21 46 -66 62
-100 29 -65 44 -155 25 -155 -6 0 -5 -4 3 -9 11 -7 10 -15 -4 -44 -11 -25 -14
-40 -7 -54 13 -24 37 -89 52 -138 12 -43 13 -47 25 -112 5 -26 13 -43 21 -43
12 0 18 -24 17 -67 -1 -7 2 -11 6 -8 10 6 8 -161 -2 -171 -4 -5 -5 -1 -2 8 8
20 -20 52 -52 62 -20 6 -21 4 -17 -36 4 -39 3 -41 -7 -18 -7 14 -11 31 -10 38
1 6 -5 12 -13 12 -10 0 -13 6 -10 15 4 9 0 15 -10 15 -9 0 -16 -4 -16 -10 0
-5 -8 -10 -17 -10 -13 0 -9 6 12 20 26 17 27 20 10 21 -11 1 -26 1 -32 0 -7
-1 -13 5 -13 14 0 9 -9 15 -22 15 -19 0 -20 2 -8 10 12 8 11 10 -7 10 -16 0
-21 5 -18 19 3 19 -9 22 -32 8 -9 -6 -13 0 -13 20 0 39 -11 52 -48 56 -41 5
-53 16 -23 24 13 3 20 11 17 19 -3 8 -1 14 4 14 6 0 10 10 10 23 0 16 -3 18
-9 8 -5 -7 -13 -11 -19 -7 -13 8 -22 46 -11 46 5 0 8 3 8 8 -1 4 0 12 1 17 8
34 4 75 -7 70 -18 -6 -16 5 4 27 15 17 15 18 -6 18 -15 0 -20 4 -15 12 13 21
12 50 -2 55 -7 2 -10 11 -8 18 3 7 1 16 -5 20 -6 3 -11 1 -11 -6 0 -7 -3 -9
-7 -6 -3 4 2 16 12 27 10 11 13 20 7 20 -7 0 -12 -5 -12 -11 0 -8 -5 -8 -15 1
-13 11 -13 14 2 26 17 12 17 14 -5 29 -13 9 -22 24 -21 33 3 25 -11 52 -28 52
-12 0 -13 9 -8 43 4 30 3 38 -4 27 -8 -11 -11 -12 -11 -2 0 9 -7 11 -22 7 -16
-4 -19 -3 -9 3 11 8 11 11 0 17 -9 6 -8 10 7 16 18 7 18 8 -2 8 -17 1 -22 7
-20 25 0 14 6 22 14 19 6 -3 12 0 12 5 0 6 -9 14 -20 17 -11 4 -20 15 -20 26
0 13 -4 18 -12 13 -11 -7 -10 -4 9 44 3 6 -2 12 -11 12 -20 0 -20 7 -2 25 21
21 42 -5 27 -34 -14 -25 -14 -34 -1 -26 6 3 10 -4 10 -17 1 -23 1 -23 16 -3
15 19 15 19 8 -9 -5 -21 -4 -27 5 -22 6 4 11 2 11 -3 0 -6 4 -11 9 -11 12 0
21 39 10 46 -9 5 -13 54 -5 54 2 0 20 -7 41 -16 50 -21 35 0 -31 42 -46 29
-54 39 -54 65 0 17 -4 28 -9 25 -9 -6 -21 16 -21 38 0 9 13 11 53 5 28 -4 62
-8 75 -8z m202 9 c11 -7 5 -8 -20 -4 -43 8 -51 14 -19 14 13 0 31 -5 39 -10z
m-397 -65 c-2 -7 0 -16 6 -20 18 -10 13 -24 -8 -22 -16 1 -19 6 -14 31 4 21 3
27 -5 22 -7 -4 -12 -2 -12 3 0 6 6 11 13 12 10 0 10 2 0 6 -7 2 -13 12 -13 21
0 12 6 8 19 -12 11 -16 17 -35 14 -41z m-53 40 c0 -8 -2 -15 -4 -15 -2 0 -6 7
-10 15 -3 8 -1 15 4 15 6 0 10 -7 10 -15z m475 -35 c10 -11 23 -20 29 -20 11
0 31 -16 111 -87 43 -38 22 -31 -48 17 -56 38 -135 109 -121 110 6 0 19 -9 29
-20z m-386 -119 c8 -5 9 -11 3 -15 -5 -3 -15 1 -22 9 -14 16 -3 20 19 6z m11
-86 c0 -8 -4 -15 -10 -15 -5 0 -10 7 -10 15 0 8 5 15 10 15 6 0 10 -7 10 -15z
m-165 -127 c43 -84 65 -190 30 -141 -10 14 -11 21 -2 32 9 11 9 13 0 8 -10 -6
-37 26 -36 43 0 3 -4 16 -8 30 -5 14 -9 29 -8 34 0 5 -5 13 -13 17 -10 7 -9 9
4 9 9 0 24 -15 33 -32z m995 -28 c-34 -22 -56 0 -28 28 10 10 16 9 28 -3 13
-14 13 -17 0 -25z m-750 20 c0 -5 -4 -10 -10 -10 -5 0 -10 5 -10 10 0 6 5 10
10 10 6 0 10 -4 10 -10z m950 -146 c0 -2 -7 -4 -15 -4 -8 0 -15 4 -15 10 0 5
7 7 15 4 8 -4 15 -8 15 -10z m-410 -25 c0 -11 -4 -18 -10 -14 -5 3 -7 12 -3
20 7 21 13 19 13 -6z m-710 -21 c24 -39 25 -48 6 -48 -13 0 -22 18 -32 63 -6
26 4 20 26 -15z m1186 18 c19 -14 18 -15 -3 -13 -12 0 -20 4 -17 8 2 4 -2 10
-8 12 -7 3 -8 6 -2 6 5 1 19 -5 30 -13z m-1283 -60 c3 -8 1 -17 -6 -20 -7 -2
-3 -5 7 -5 11 -1 16 -4 13 -8 -4 -3 0 -14 8 -23 18 -19 29 -64 14 -55 -5 4 -9
13 -9 22 0 9 -11 26 -25 39 -14 13 -25 32 -25 44 0 23 15 27 23 6z m135 -50
c7 -14 12 -34 10 -42 -2 -10 -12 3 -26 31 -14 30 -18 45 -10 43 7 -3 19 -17
26 -32z m641 11 c0 -9 -2 -8 -6 1 -2 6 -10 9 -15 6 -7 -4 -8 -2 -4 5 9 13 26
5 25 -12z m-4 -47 c3 -5 2 -10 -4 -10 -5 0 -13 5 -16 10 -3 6 -2 10 4 10 5 0
13 -4 16 -10z m-3023 -138 c-7 -59 -17 -147 -22 -197 -12 -115 -74 -304 -94
-284 -8 8 28 254 56 379 48 218 52 230 62 220 7 -7 6 -44 -2 -118z m2416 101
c0 -5 1 -15 5 -23 30 -78 39 -112 34 -130 -3 -11 -1 -20 4 -20 5 0 9 -10 9
-22 -1 -18 -5 -14 -20 17 -11 22 -17 47 -14 57 3 9 -4 32 -16 52 -21 39 -26
76 -10 76 6 0 9 -3 8 -7z m-93 -93 c-3 -5 -2 -10 3 -10 9 0 20 -29 29 -75 2
-10 9 -23 16 -27 8 -5 7 -8 -5 -8 -11 0 -18 12 -23 39 -4 22 -13 45 -21 52
-16 13 -19 39 -3 39 5 0 7 -4 4 -10z m382 -171 c1 -19 1 -20 -4 -4 -3 11 -10
24 -17 28 -7 6 -6 7 4 4 8 -2 16 -14 17 -28z m-187 -31 c0 -10 -20 -11 -21 0
0 4 -2 16 -4 27 -4 20 -4 20 11 1 8 -11 14 -23 14 -28z m-108 5 c0 -10 1 -24
1 -30 -1 -7 3 -13 8 -13 5 0 9 -8 9 -17 0 -24 -15 -6 -34 40 -13 32 -13 37 0
37 7 0 15 -8 16 -17z m146 -133 c0 -8 -8 3 -19 25 -10 22 -18 47 -18 55 1 19
38 -60 37 -80z m-113 40 c-3 -5 -2 -10 3 -10 5 0 12 -11 14 -25 7 -33 -6 -32
-21 1 -10 23 -8 44 5 44 3 0 2 -4 -1 -10z m530 -80 c3 -5 1 -10 -4 -10 -6 0
-11 5 -11 10 0 6 2 10 4 10 3 0 8 -4 11 -10z m-10 -40 c-27 -12 -43 -12 -25 0
8 5 22 9 30 9 10 0 8 -3 -5 -9z m55 -25 c0 -14 -21 -25 -48 -25 -15 0 -15 2
-2 10 13 8 12 10 -3 10 -10 0 -16 4 -12 10 3 5 12 7 19 4 8 -3 17 0 21 5 8 14
25 5 25 -14z m-407 -17 c6 -22 5 -22 -8 -4 -17 22 -20 40 -6 32 5 -3 11 -16
14 -28z m-78 -64 c27 -74 35 -126 9 -59 -9 22 -18 50 -21 63 -3 12 -9 25 -14
28 -5 3 -9 15 -9 26 0 31 7 20 35 -58z m412 50 c-3 -3 -12 -4 -19 -1 -8 3 -5
6 6 6 11 1 17 -2 13 -5z m113 -44 c0 -5 -4 -10 -10 -10 -5 0 -10 5 -10 10 0 6
5 10 10 10 6 0 10 -4 10 -10z m-467 -15 c-3 -9 -8 -14 -10 -11 -3 3 -2 9 2 15
9 16 15 13 8 -4z m-83 -5 c0 -5 -2 -10 -4 -10 -3 0 -8 5 -11 10 -3 6 -1 10 4
10 6 0 11 -4 11 -10z m190 -131 c6 -22 14 -48 17 -57 3 -9 -3 -3 -14 13 -10
17 -25 49 -31 73 -12 41 -32 58 -32 27 0 -8 -7 -15 -15 -15 -13 0 -13 3 -3 20
7 11 17 20 21 20 5 0 5 10 2 23 -3 12 5 3 19 -21 14 -24 30 -61 36 -83z m-172
91 c10 -16 10 -20 0 -18 -14 3 -28 18 -28 31 0 14 15 7 28 -13z m7 -40 c3 -5
1 -10 -4 -10 -6 0 -11 5 -11 10 0 6 2 10 4 10 3 0 8 -4 11 -10z m549 -24 c-10
-8 -21 -12 -23 -10 -3 2 4 11 15 18 10 8 21 12 23 10 3 -2 -4 -11 -15 -18z
m-501 -23 c-3 -7 -13 -13 -22 -13 -12 0 -13 2 -3 9 7 4 12 12 11 17 -3 20 2
28 10 15 5 -8 7 -20 4 -28z m517 -37 c0 -26 -6 -18 -14 19 -5 22 -4 26 4 15 5
-8 10 -24 10 -34z m-523 1 c-3 -8 -1 -20 5 -28 8 -11 8 -10 4 5 -5 16 -4 17 9
6 8 -7 13 -16 10 -20 -3 -5 -1 -11 4 -14 5 -3 14 -20 20 -36 6 -18 6 -28 1
-25 -6 4 -10 2 -10 -3 0 -6 -9 -8 -20 -5 -14 4 -20 14 -20 33 0 15 -7 44 -15
64 -14 33 -14 36 1 36 9 0 14 -6 11 -13z m550 -59 c-3 -7 -5 -2 -5 12 0 14 2
19 5 13 2 -7 2 -19 0 -25z m-432 -17 c-3 -6 3 -14 12 -20 10 -6 13 -11 7 -11
-15 0 -36 25 -27 33 10 10 15 8 8 -2z m52 2 c-4 -3 -3 -11 2 -17 13 -17 23
-66 13 -66 -11 0 -32 46 -32 70 0 11 5 20 12 20 6 0 8 -3 5 -7z m758 -13 c-3
-5 -12 -10 -18 -10 -7 0 -6 4 3 10 19 12 23 12 15 0z m136 -53 c-14 -14 -26
17 -16 41 6 15 8 14 16 -7 6 -16 6 -28 0 -34z m-1041 3 c0 -5 -2 -10 -4 -10
-3 0 -8 5 -11 10 -3 6 -1 10 4 10 6 0 11 -4 11 -10z m98 -88 c24 -61 27 -76
12 -67 -5 3 -10 2 -10 -4 0 -10 -83 -51 -103 -51 -18 0 11 23 33 27 27 4 60
39 60 63 0 28 -52 108 -68 103 -6 -3 -9 -10 -6 -15 5 -7 2 -8 -6 -3 -10 6 -7
12 11 26 23 18 24 18 39 -3 8 -12 25 -46 38 -76z m455 83 c-1 -5 3 -16 9 -22
8 -10 5 -13 -10 -13 -24 0 -38 16 -20 23 8 3 6 6 -4 6 -10 1 -18 6 -18 12 0 6
10 9 23 7 12 -2 21 -7 20 -13z m-364 -58 c7 -19 25 -55 41 -81 32 -50 37 -71
18 -82 -7 -4 -8 -3 -4 4 5 8 0 12 -13 12 -11 0 -23 -4 -26 -10 -3 -5 -10 -10
-15 -10 -13 0 -5 55 9 56 6 1 15 2 21 3 5 0 7 8 4 16 -4 8 -10 13 -14 10 -5
-3 -11 9 -15 26 -4 17 -13 41 -20 55 l-12 25 -7 -23 c-7 -22 -7 -22 -15 -3
-11 25 -5 35 19 35 12 0 22 -11 29 -33z m851 12 c0 -6 -4 -7 -10 -4 -5 3 -10
11 -10 16 0 6 5 7 10 4 6 -3 10 -11 10 -16z m-449 -41 c6 -24 22 -67 35 -96
39 -86 43 -157 7 -121 -6 6 -42 13 -80 16 -71 5 -123 19 -123 34 0 5 -3 8 -7
7 -5 -1 -17 1 -28 4 -11 3 -32 9 -47 12 -16 4 -28 11 -28 16 0 14 32 12 55 -3
30 -20 103 -40 162 -44 29 -2 64 -8 78 -13 35 -13 35 -13 28 8 -12 36 -55 82
-75 82 -14 0 -18 5 -14 15 4 11 -1 15 -18 15 -24 0 -41 24 -30 42 3 5 17 7 31
3 16 -4 22 -2 18 5 -3 5 1 10 9 10 17 0 11 29 -8 42 -7 5 -4 8 6 8 12 0 21
-13 29 -42z m-126 -18 c-27 -18 -28 -20 -8 -20 12 0 24 -4 28 -9 3 -6 -7 -6
-26 -1 -41 12 -45 17 -20 25 12 3 19 11 16 16 -4 5 4 9 17 9 22 0 21 -1 -7
-20z m-315 -104 c0 -12 -3 -26 -7 -30 -5 -4 -8 -12 -8 -17 0 -5 -3 -9 -7 -9
-43 0 -43 0 -18 20 18 13 24 26 22 46 -3 17 0 24 7 20 6 -4 11 -17 11 -30z
m221 -79 c13 -13 31 -27 39 -30 11 -4 11 -6 -3 -6 -10 -1 -28 9 -41 22 -12 12
-33 24 -47 25 -35 6 -37 12 -3 12 17 0 40 -10 55 -23z m-146 -7 c-4 -7 -65
-20 -65 -14 0 2 12 10 27 18 28 14 48 12 38 -4z m85 0 c0 -5 -4 -10 -10 -10
-5 0 -10 5 -10 10 0 6 5 10 10 10 6 0 10 -4 10 -10z m-52 -25 c-3 -3 -9 2 -12
12 -6 14 -5 15 5 6 7 -7 10 -15 7 -18z m197 5 c3 -5 -1 -10 -10 -10 -9 0 -13
5 -10 10 3 6 8 10 10 10 2 0 7 -4 10 -10z m4486 -67 c12 -10 35 -13 75 -10 40
2 66 -1 82 -12 19 -11 25 -12 32 -2 6 10 12 10 30 -1 18 -10 24 -10 27 0 3 6
11 12 18 12 7 0 15 -6 18 -12 3 -10 7 -10 19 0 10 8 17 9 20 3 1 -5 26 -16 53
-23 28 -7 56 -18 63 -25 7 -7 18 -13 23 -13 23 0 99 -44 113 -65 14 -21 14
-27 -1 -64 -9 -22 -23 -43 -33 -46 -11 -4 -17 -17 -18 -42 -1 -25 -9 -43 -22
-53 -20 -15 -19 -60 2 -60 7 0 6 -5 -1 -14 -6 -7 -10 -24 -9 -37 2 -18 -8 -30
-52 -56 -30 -19 -66 -37 -80 -40 -14 -3 -41 -16 -60 -28 -52 -32 -128 -55
-139 -41 -12 16 -6 44 16 69 16 20 16 20 0 8 -9 -8 -19 -12 -21 -10 -2 4 -49
125 -80 209 -7 19 -41 105 -75 190 -33 85 -61 160 -61 167 0 25 29 23 61 -4z
m-6102 -27 c19 -21 20 -24 6 -30 -9 -3 -24 -2 -33 4 -10 5 -13 10 -9 10 4 0 3
9 -3 20 -16 29 10 27 39 -4z m5619 -41 c29 -17 43 -37 56 -77 11 -36 -90 -66
-253 -74 l-109 -5 -20 29 -21 29 35 29 c20 16 63 44 97 62 54 28 69 32 123 29
35 -3 74 -12 92 -22z m431 3 c19 -50 23 -73 13 -63 -11 11 -34 85 -26 85 2 0
8 -10 13 -22z m-6145 -20 c-5 -8 -1 -9 12 -4 14 5 16 4 7 -5 -13 -13 -37 -3
-28 12 4 5 8 9 11 9 3 0 2 -5 -2 -12z m1113 -4 c-3 -3 -12 -4 -19 -1 -8 3 -5
6 6 6 11 1 17 -2 13 -5z m473 -14 c0 -5 -4 -10 -10 -10 -5 0 -10 5 -10 10 0 6
5 10 10 10 6 0 10 -4 10 -10z m-507 -12 c-13 -6 -23 -15 -23 -20 0 -4 -6 -8
-14 -8 -8 0 -17 -7 -20 -16 -4 -9 -9 -14 -13 -11 -3 4 -19 -8 -34 -26 -19 -21
-29 -27 -29 -16 0 25 110 107 145 108 6 0 0 -5 -12 -11z m587 -88 c0 -5 -5
-10 -11 -10 -5 0 -7 5 -4 10 3 6 8 10 11 10 2 0 4 -4 4 -10z m590 -80 c0 -5
-4 -10 -10 -10 -5 0 -10 5 -10 10 0 6 5 10 10 10 6 0 10 -4 10 -10z m3224 1
c7 -11 -18 -22 -61 -27 -40 -5 -42 1 -5 20 31 17 58 20 66 7z m-4600 -16 c-4
-8 -8 -15 -10 -15 -2 0 -4 7 -4 15 0 8 4 15 10 15 5 0 7 -7 4 -15z m1246 -29
c0 -3 -4 -8 -10 -11 -5 -3 -10 -1 -10 4 0 6 5 11 10 11 6 0 10 -2 10 -4z
m4124 -22 c3 -8 2 -12 -4 -9 -6 3 -10 10 -10 16 0 14 7 11 14 -7z m-4634 -38
c0 -14 -34 -28 -44 -18 -6 5 24 31 37 32 4 0 7 -6 7 -14z m1338 -1 c2 -1 -28
-10 -65 -20 -37 -10 -101 -28 -142 -42 -40 -13 -74 -23 -76 -21 -1 2 -5 15 -9
31 -6 23 -3 29 21 38 50 19 252 29 271 14z m-1288 -20 c0 -8 -4 -15 -10 -15
-5 0 -10 7 -10 15 0 8 5 15 10 15 6 0 10 -7 10 -15z m-53 -67 c-3 -8 -6 -5 -6
6 -1 11 2 17 5 13 3 -3 4 -12 1 -19z m43 -18 c0 -5 -4 -10 -10 -10 -5 0 -10 5
-10 10 0 6 5 10 10 10 6 0 10 -4 10 -10z m1645 -11 c17 -10 63 -35 104 -55 80
-38 131 -70 131 -83 0 -7 -125 -58 -190 -77 -21 -6 -181 -82 -242 -115 -23
-12 -121 -49 -123 -46 -1 1 -7 10 -12 21 -9 17 -11 16 -24 -12 -9 -21 -28 -36
-61 -51 -77 -34 -88 -28 -108 52 -7 26 -17 47 -22 47 -19 0 -47 45 -41 67 2
12 0 37 -5 55 -27 88 -28 84 41 106 332 107 488 132 552 91z m-1595 -9 c0 -5
-7 -10 -16 -10 -8 0 -12 5 -9 10 3 6 10 10 16 10 5 0 9 -4 9 -10z m1999 -22
c28 -6 51 -14 51 -18 0 -3 -16 -12 -35 -19 -34 -12 -37 -11 -71 18 -40 36 -30
39 55 19z m-2054 -28 c-3 -5 -10 -10 -16 -10 -5 0 -9 5 -9 10 0 6 7 10 16 10
8 0 12 -4 9 -10z m4265 -43 c1 30 29 -3 40 -47 10 -42 9 -52 -8 -86 -41 -79
-128 -144 -194 -144 -23 0 -44 -9 -64 -27 -40 -37 -77 -56 -100 -51 -15 3 -21
16 -27 67 -4 35 -14 79 -22 98 -14 33 -13 34 10 43 29 11 33 30 8 30 -15 0
-15 2 3 14 31 22 72 30 88 17 9 -8 21 -8 40 -1 20 7 26 16 26 39 0 18 6 31 18
34 9 3 49 17 87 31 l70 25 12 -27 c7 -15 12 -22 13 -15z m-351 1 c6 -18 7 -28
2 -23 -10 12 -25 55 -18 55 3 0 10 -15 16 -32z m-102 -252 c55 -83 56 -96 4
-96 -13 0 -34 -11 -47 -25 -24 -26 -108 -75 -129 -75 -6 0 -33 -15 -60 -34
-27 -19 -77 -42 -114 -52 -36 -9 -71 -21 -77 -26 -7 -5 -23 -2 -39 6 -37 19
-45 13 -45 -34 0 -82 -46 -49 -83 60 -32 96 -36 120 -17 131 20 12 149 69 155
69 10 0 340 144 350 152 24 21 52 0 102 -76z m-3787 70 c0 -3 -4 -8 -10 -11
-5 -3 -10 -1 -10 4 0 6 5 11 10 11 6 0 10 -2 10 -4z m2750 -398 c-1 -7 -20
-35 -44 -61 l-44 -49 -12 37 c-7 20 -10 38 -8 40 6 6 92 45 101 45 4 0 7 -6 7
-12z m-785 -128 c-3 -5 -1 -10 4 -10 20 0 11 -16 -9 -17 -19 -2 -27 16 -13 30
10 11 25 8 18 -3z m220 -40 c2 -4 -7 -5 -20 -2 -14 2 -25 8 -25 12 0 10 38 1
45 -10z m45 -26 c0 -2 -7 -4 -15 -4 -8 0 -15 4 -15 10 0 5 7 7 15 4 8 -4 15
-8 15 -10z m50 -57 c0 -5 -4 -5 -10 -2 -5 3 -10 14 -10 23 0 15 2 15 10 2 5
-8 10 -19 10 -23z m-70 3 c0 -5 -5 -10 -11 -10 -5 0 -7 5 -4 10 3 6 8 10 11
10 2 0 4 -4 4 -10z m183 -37 c41 -8 41 -19 1 -38 -29 -14 -38 -15 -45 -4 -4 8
-1 17 9 25 14 10 13 12 -6 18 -12 4 -27 4 -33 0 -8 -5 -9 -3 -4 5 4 8 16 10
29 6 11 -4 33 -9 49 -12z m-600 -34 c-2 -14 -13 -30 -23 -37 -17 -10 -17 -8 2
28 24 45 28 47 21 9z m82 11 c3 -5 1 -10 -4 -10 -6 0 -11 5 -11 10 0 6 2 10 4
10 3 0 8 -4 11 -10z m-20 -100 c9 -10 23 -16 31 -13 8 3 14 0 14 -7 0 -8 -9
-11 -25 -8 -14 3 -25 1 -25 -3 0 -8 23 -13 43 -10 15 2 6 -20 -10 -26 -10 -4
-22 -11 -26 -17 -5 -6 -5 0 -2 13 5 15 3 21 -3 17 -6 -3 -13 3 -17 14 -3 11
-13 20 -21 20 -8 0 -14 10 -14 24 0 19 4 23 19 19 11 -3 27 -13 36 -23z m111
-59 c-6 -2 -30 -22 -53 -44 -31 -30 -43 -36 -43 -24 0 9 7 17 15 17 18 0 20
20 3 20 -7 1 -2 10 11 20 13 11 21 26 18 33 -4 10 3 10 28 -2 18 -9 27 -18 21
-20z m-161 20 c3 -6 -3 -9 -14 -8 -11 0 -17 5 -15 9 7 11 22 10 29 -1z m-20
-30 c18 -7 16 -9 -12 -15 -38 -9 -51 -33 -21 -38 12 -2 23 -9 25 -15 4 -10 -3
-10 -26 -2 -35 12 -37 20 -15 54 18 27 19 27 49 16z m357 -58 c58 -34 61 -37
38 -43 -14 -4 -24 -12 -23 -18 3 -13 -44 -28 -54 -18 -3 3 -6 19 -5 35 1 35
-18 45 -53 29 -14 -6 -28 -8 -33 -3 -4 4 -1 10 6 12 6 3 12 11 12 19 0 17 5
17 33 2 20 -10 21 -10 8 5 -22 27 3 20 71 -20z m-542 19 c0 -12 -38 -41 -44
-35 -3 4 -6 15 -6 25 0 13 7 18 25 18 14 0 25 -3 25 -8z m-214 -99 c6 -13 18
-31 27 -41 15 -16 15 -21 2 -39 -24 -34 -59 -19 -89 40 -21 39 -24 52 -14 59
22 14 62 4 74 -19z m939 -33 c9 -15 -51 -12 -62 3 -6 6 -13 20 -16 30 -6 16
-3 15 33 -3 21 -11 41 -24 45 -30z m70 10 c3 -6 -1 -7 -9 -4 -18 7 -21 14 -7
14 6 0 13 -4 16 -10z m-155 -20 c0 -5 -5 -10 -11 -10 -5 0 -7 5 -4 10 3 6 8
10 11 10 2 0 4 -4 4 -10z m214 -5 c-7 -16 -24 -21 -24 -6 0 8 7 13 27 20 1 1
0 -6 -3 -14z m-189 -24 c-3 -6 -11 -11 -17 -11 -6 0 -6 6 2 15 14 17 26 13 15
-4z m210 -1 c3 -5 1 -10 -4 -10 -6 0 -11 5 -11 10 0 6 2 10 4 10 3 0 8 -4 11
-10z m-70 -9 c3 -5 19 -12 35 -16 16 -4 32 -11 35 -16 4 -5 -1 -6 -10 -3 -8 4
-22 1 -29 -5 -10 -8 -16 -9 -21 -1 -3 5 0 10 7 10 7 1 1 8 -14 16 -16 8 -28
17 -28 19 0 9 19 5 25 -4z m-124 -67 c41 -21 29 -31 -13 -12 -18 9 -40 18 -48
21 -10 3 -7 6 8 6 13 1 37 -6 53 -15z m119 -24 c13 -8 12 -10 -3 -10 -11 0
-16 -5 -12 -12 4 -7 0 -5 -8 4 -8 11 -22 15 -38 12 -21 -4 -22 -3 -4 5 26 13
47 13 65 1z m-5278 -67 c20 -35 34 -108 18 -98 -21 13 -58 125 -41 125 4 0 14
-12 23 -27z m1250 5 c-7 -7 -12 -8 -12 -2 0 14 12 26 19 19 2 -3 -1 -11 -7
-17z m113 -8 c-9 -18 -21 -28 -27 -24 -7 5 -6 11 5 19 10 7 17 17 17 24 0 6 5
11 10 11 6 0 4 -13 -5 -30z m1652 11 c-1 -12 -6 -17 -16 -13 -10 4 -11 7 -3
10 7 2 10 8 6 13 -3 5 -1 9 5 9 5 0 9 -9 8 -19z m2518 -39 c-8 -8 -25 10 -19
20 4 6 9 5 15 -3 4 -7 6 -15 4 -17z m-4185 -22 c0 -11 -26 -31 -32 -24 -11 11
4 43 18 37 8 -3 14 -9 14 -13z m-130 -15 c0 -8 -4 -15 -10 -15 -5 0 -7 7 -4
15 4 8 8 15 10 15 2 0 4 -7 4 -15z m-1204 -72 c-10 -10 -19 5 -10 18 6 11 8
11 12 0 2 -7 1 -15 -2 -18z m6237 -6 c-3 -4 -6 -7 -7 -5 -1 2 -8 12 -16 22
-14 18 -14 18 7 6 12 -8 19 -18 16 -23z m-3229 -13 c9 -23 7 -46 -3 -40 -11 7
-21 56 -11 56 4 0 11 -7 14 -16z m3276 -104 c0 -5 -2 -10 -4 -10 -3 0 -8 5
-11 10 -3 6 -1 10 4 10 6 0 11 -4 11 -10z m-413 -26 c-7 -7 -37 7 -37 17 0 6
9 5 21 -1 11 -7 19 -14 16 -16z m-4665 -6 c-7 -7 -12 -8 -12 -2 0 14 12 26 19
19 2 -3 -1 -11 -7 -17z m4965 16 c-3 -3 -12 -4 -19 -1 -8 3 -5 6 6 6 11 1 17
-2 13 -5z m-2365 -56 c-6 -6 -15 -8 -19 -4 -4 4 -1 11 7 16 10 7 11 10 3 10
-7 0 -13 5 -13 12 0 8 6 6 17 -5 13 -13 14 -20 5 -29z m2028 38 c0 -2 -7 -6
-15 -10 -8 -3 -15 -1 -15 4 0 6 7 10 15 10 8 0 15 -2 15 -4z m335 -6 c3 -5 -3
-10 -14 -10 -12 0 -21 5 -21 10 0 6 6 10 14 10 8 0 18 -4 21 -10z m50 0 c3 -5
-1 -10 -10 -10 -9 0 -13 5 -10 10 3 6 8 10 10 10 2 0 7 -4 10 -10z m10 -41
c-6 -16 -4 -20 6 -13 11 6 11 4 0 -10 -27 -33 -49 -38 -81 -19 -17 9 -30 21
-30 25 0 15 46 38 78 38 29 0 33 -2 27 -21z m-160 -46 c31 -7 38 -11 85 -55
19 -17 27 -33 24 -43 -7 -18 -20 -20 -30 -3 -4 7 -3 8 4 4 7 -4 12 -2 12 3 0
6 -2 11 -4 11 -2 0 -11 3 -19 6 -10 3 -18 -5 -25 -24 -9 -26 -8 -31 14 -41 25
-11 31 -26 14 -36 -6 -3 -7 1 -4 10 5 11 2 15 -7 13 -8 -1 -35 12 -61 30 -49
34 -70 56 -44 46 11 -4 16 0 16 10 0 9 4 16 9 16 5 0 11 6 14 13 3 9 -6 14
-28 15 -28 2 -34 -1 -39 -23 -8 -30 -25 -29 -37 2 -10 29 25 67 55 59 11 -4
34 -9 51 -13z m-345 -3 c0 -5 -4 -10 -10 -10 -5 0 -10 5 -10 10 0 6 5 10 10
10 6 0 10 -4 10 -10z m65 -30 c6 -4 41 -18 79 -31 37 -13 71 -30 73 -37 6 -14
-23 -62 -36 -62 -5 0 -7 8 -4 19 3 11 -5 29 -20 45 -28 30 -47 34 -47 9 -1
-17 -1 -17 -11 0 -5 9 -8 21 -5 25 3 5 -2 9 -10 9 -9 0 -13 -6 -9 -15 3 -9 0
-19 -7 -24 -10 -6 -10 -10 2 -18 8 -5 10 -10 4 -10 -6 0 -17 7 -24 15 -9 10
-9 15 -1 15 6 0 11 5 11 10 0 6 -16 10 -35 10 -19 0 -35 -4 -35 -10 0 -5 -5
-10 -11 -10 -5 0 -7 5 -3 11 3 6 0 15 -7 20 -10 6 -8 9 9 9 22 0 32 20 10 20
-9 0 -8 3 2 10 15 9 56 4 75 -10z m-185 -40 c0 -5 -5 -10 -11 -10 -5 0 -7 5
-4 10 3 6 8 10 11 10 2 0 4 -4 4 -10z m-4486 -42 c-9 -14 -23 2 -17 18 4 12 8
13 14 3 4 -7 5 -17 3 -21z m-476 -29 c36 -33 35 -42 -9 -64 -24 -13 -37 -14
-71 -4 -42 11 -64 8 -153 -22 -32 -11 -105 -32 -170 -50 -22 -6 -49 -15 -60
-20 -11 -4 -40 -12 -65 -17 -25 -6 -71 -20 -104 -32 -32 -11 -68 -20 -79 -18
-18 3 -17 6 14 29 34 25 172 74 409 144 69 21 130 41 136 46 15 12 85 37 104
38 8 0 30 -13 48 -30z m5420 -8 c12 -11 22 -23 22 -27 0 -4 7 -16 17 -26 15
-17 15 -18 -6 -18 -12 0 -19 4 -16 10 3 6 2 10 -3 10 -6 0 -12 -7 -16 -15 -3
-8 -2 -14 2 -14 18 3 45 -2 40 -6 -16 -16 -48 -12 -53 6 -4 11 -10 17 -15 14
-4 -3 -6 4 -3 15 3 11 0 27 -7 35 -11 14 -6 35 8 35 4 -1 17 -9 30 -19z
m-6280 -474 c16 -38 15 -54 -4 -61 -38 -15 -104 64 -104 125 0 37 34 79 65 79
8 0 16 10 17 23 0 12 4 -14 8 -58 4 -44 12 -93 18 -108z m4840 -92 c-2 -1 -14
-8 -28 -15 -25 -13 -25 -13 -6 8 10 12 23 19 28 16 5 -3 8 -7 6 -9z m452 -117
c0 -11 -58 -10 -64 0 -3 5 11 8 29 8 19 -1 35 -4 35 -8z m-750 -112 c0 -3 -4
-8 -10 -11 -5 -3 -10 -1 -10 4 0 6 5 11 10 11 6 0 10 -2 10 -4z"/>
<path d="M3483 9473 c-7 -2 -13 -9 -13 -14 0 -6 4 -8 9 -5 5 4 11 2 13 -4 2
-6 8 -6 18 0 12 8 12 10 -5 11 -14 1 -10 4 10 9 27 7 28 8 5 8 -14 0 -31 -2
-37 -5z"/>
<path d="M3436 9445 c4 -8 -3 -15 -18 -18 -21 -4 -21 -4 -2 -6 28 -1 51 24 30
32 -10 4 -13 1 -10 -8z"/>
<path d="M3330 9416 c0 -2 7 -7 16 -10 8 -3 12 -2 9 4 -6 10 -25 14 -25 6z"/>
<path d="M3307 7634 c-13 -14 -7 -143 9 -184 15 -38 24 -47 36 -35 3 3 -3 36
-13 73 -11 36 -19 78 -19 92 l0 24 29 -29 c49 -50 55 -54 74 -40 9 7 17 21 17
31 -1 18 -1 18 -15 0 -8 -11 -15 -14 -15 -8 0 7 -7 12 -15 12 -8 0 -29 16 -47
36 -18 19 -37 32 -41 28z"/>
<path d="M3590 7380 c0 -5 5 -10 10 -10 6 0 10 5 10 10 0 6 -4 10 -10 10 -5 0
-10 -4 -10 -10z"/>
<path d="M4454 5745 c-3 -8 -4 -20 -2 -27 3 -7 7 -1 10 15 6 29 1 36 -8 12z"/>
<path d="M4660 5659 c0 -4 7 -9 15 -13 8 -3 15 -12 15 -21 0 -8 5 -15 10 -15
6 0 10 9 10 20 0 11 5 20 10 20 6 0 10 4 10 8 0 5 -16 8 -35 8 -19 -1 -35 -4
-35 -7z"/>
<path d="M4843 5546 c-22 -20 -26 -27 -15 -37 9 -10 12 -10 12 -1 0 7 9 12 20
12 15 0 20 7 20 25 0 31 -2 31 -37 1z"/>
<path d="M4873 5516 c-13 -7 -20 -15 -17 -18 6 -7 54 14 54 25 0 10 -10 8 -37
-7z"/>
<path d="M4485 5510 c3 -5 8 -10 11 -10 2 0 4 5 4 10 0 6 -5 10 -11 10 -5 0
-7 -4 -4 -10z"/>
<path d="M4552 5300 c0 -14 2 -19 5 -12 2 6 2 18 0 25 -3 6 -5 1 -5 -13z"/>
<path d="M4645 5091 c-3 -5 -1 -12 5 -16 5 -3 10 1 10 9 0 18 -6 21 -15 7z"/>
<path d="M4645 5050 c-3 -5 -1 -10 4 -10 6 0 11 5 11 10 0 6 -2 10 -4 10 -3 0
-8 -4 -11 -10z"/>
<path d="M4630 4975 c-8 -9 -8 -15 -2 -15 12 0 26 19 19 26 -2 2 -10 -2 -17
-11z"/>
<path d="M4648 4863 c6 -2 18 -2 25 0 6 3 1 5 -13 5 -14 0 -19 -2 -12 -5z"/>
<path d="M6104 3081 c-26 -19 -87 -91 -82 -97 13 -12 118 65 118 87 0 11 -26
18 -36 10z"/>
<path d="M7085 1970 c3 -5 8 -10 11 -10 2 0 4 5 4 10 0 6 -5 10 -11 10 -5 0
-7 -4 -4 -10z"/>
<path d="M8076 1267 c3 -10 9 -15 12 -12 3 3 0 11 -7 18 -10 9 -11 8 -5 -6z"/>
<path d="M8169 1233 c-13 -17 -13 -17 6 -3 11 8 22 16 24 17 2 2 0 3 -6 3 -6
0 -17 -8 -24 -17z"/>
<path d="M4590 9500 c0 -5 5 -10 11 -10 5 0 7 5 4 10 -3 6 -8 10 -11 10 -2 0
-4 -4 -4 -10z"/>
<path d="M4615 9470 c4 -6 11 -8 16 -5 14 9 11 15 -7 15 -8 0 -12 -5 -9 -10z"/>
<path d="M4646 9451 c-3 -4 16 -26 42 -48 38 -33 113 -107 210 -208 6 -8 12
-19 12 -25 0 -7 9 -25 21 -41 11 -16 17 -34 13 -40 -4 -8 -3 -9 4 -5 7 4 12 3
12 -2 0 -13 93 -156 104 -161 5 -2 23 -18 39 -35 l28 -31 -7 30 c-8 36 -57
127 -93 175 -15 19 -34 47 -44 62 -17 28 -236 251 -299 306 -20 17 -39 28 -42
23z"/>
<path d="M3269 9446 c-2 -3 -42 -14 -89 -26 -233 -58 -457 -192 -567 -337 -25
-33 -25 -35 -5 -22 12 9 39 32 60 51 60 56 212 169 246 183 117 49 194 79 280
110 103 37 120 45 94 45 -8 0 -17 -2 -19 -4z"/>
<path d="M5270 8637 c0 -2 38 -81 85 -175 47 -95 85 -175 85 -178 0 -3 13 -32
29 -65 17 -32 28 -59 25 -59 -2 0 -19 24 -38 53 -18 28 -44 61 -57 72 -23 21
-22 16 18 -47 12 -20 48 -88 79 -149 32 -62 65 -120 75 -130 10 -10 23 -35 29
-56 6 -21 17 -47 26 -58 16 -19 16 -19 9 5 -4 14 -23 62 -41 107 -19 45 -34
87 -34 92 0 6 -14 39 -31 73 -17 35 -40 90 -50 123 -41 124 -209 439 -209 392z"/>
<path d="M4831 8184 c0 -11 3 -14 6 -6 3 7 2 16 -1 19 -3 4 -6 -2 -5 -13z"/>
<path d="M5387 7999 c38 -71 71 -114 80 -105 5 5 -105 176 -113 176 -3 0 12
-32 33 -71z"/>
<path d="M5030 7939 c0 -5 5 -7 10 -4 6 3 10 8 10 11 0 2 -4 4 -10 4 -5 0 -10
-5 -10 -11z"/>
<path d="M5014 7881 c11 -18 58 -39 101 -45 39 -6 38 -6 -11 13 -28 10 -62 24
-74 31 -15 8 -20 8 -16 1z"/>
<path d="M5173 7725 c0 -27 2 -38 4 -22 2 15 2 37 0 50 -2 12 -4 0 -4 -28z"/>
<path d="M4385 7670 c-8 -13 4 -32 16 -25 12 8 12 35 0 35 -6 0 -13 -4 -16
-10z"/>
<path d="M4440 7665 c-14 -8 -20 -14 -14 -15 5 0 19 7 30 15 24 18 16 19 -16
0z"/>
<path d="M5161 7076 c-11 -43 -16 -124 -7 -115 6 5 26 152 22 157 -2 1 -9 -17
-15 -42z"/>
<path d="M5480 5495 c0 -5 5 -17 10 -25 5 -8 10 -10 10 -5 0 6 -5 17 -10 25
-5 8 -10 11 -10 5z"/>
<path d="M5491 5434 c0 -11 3 -14 6 -6 3 7 2 16 -1 19 -3 4 -6 -2 -5 -13z"/>
<path d="M1721 4319 c-13 -10 -19 -19 -15 -19 13 1 48 29 43 34 -2 2 -15 -4
-28 -15z"/>
<path d="M5843 4135 c6 -25 12 -43 14 -41 6 6 -9 86 -17 86 -4 0 -3 -20 3 -45z"/>
<path d="M5711 4053 c0 -4 4 -17 9 -28 8 -19 9 -19 9 2 1 12 -3 25 -9 28 -5 3
-10 3 -9 -2z"/>
<path d="M5719 3955 c-12 -40 -12 -51 -2 -53 7 -2 13 -9 14 -15 0 -7 2 -21 4
-32 3 -11 7 -45 10 -75 3 -30 10 -79 16 -107 6 -29 8 -57 5 -62 -12 -19 5 -38
30 -33 22 4 24 8 19 32 -6 26 -4 28 16 23 29 -8 21 18 -10 32 -26 12 -40 59
-68 225 l-19 115 -15 -50z"/>
<path d="M5901 3813 c6 -76 14 -99 35 -107 7 -3 20 -20 28 -38 l14 -33 -3 30
c-2 17 -4 32 -5 35 -1 3 -2 14 -1 26 1 11 -7 41 -18 67 -11 26 -18 47 -16 47
3 0 -3 9 -12 20 -10 11 -20 20 -23 20 -3 0 -3 -30 1 -67z"/>
<path d="M8186 2178 c4 -6 9 -23 10 -37 2 -14 6 -44 10 -66 5 -34 2 -44 -21
-69 -33 -36 -28 -65 8 -41 29 19 47 56 47 97 0 32 -39 128 -53 128 -5 0 -5 -5
-1 -12z"/>
<path d="M7947 756 c-4 -10 0 -12 14 -9 10 3 16 9 13 14 -8 13 -21 11 -27 -5z"/>
</g>
</svg>
